<svg xmlns="http://www.w3.org/2000/svg" width="24" height="24" viewBox="0 0 24 24" fill="none">
  <path d="M12 15.5a3.5 3.5 0 1 0 0-7 3.5 3.5 0 0 0 0 7z" stroke="#64748B" stroke-width="1.6" stroke-linecap="round" stroke-linejoin="round"/>
  <path d="M19 12a7.2 7.2 0 0 0-.1-1l2-1.5-2-3.5-2.4.9a7 7 0 0 0-1.7-1l-.3-2.6h-4l-.3 2.6a7 7 0 0 0-1.7 1l-2.4-.9-2 3.5 2 1.5a7.2 7.2 0 0 0 0 2l-2 1.5 2 3.5 2.4-.9a7 7 0 0 0 1.7 1l.3 2.6h4l.3-2.6a7 7 0 0 0 1.7-1l2.4.9 2-3.5-2-1.5c.1-.3.1-.7.1-1z" stroke="#64748B" stroke-width="1.4" stroke-linecap="round" stroke-linejoin="round"/>
</svg>
